<?xml version="1.0" encoding="utf-8"?>
<!-- Generator: Adobe Illustrator 18.1.0, SVG Export Plug-In . SVG Version: 6.00 Build 0)  -->
<!DOCTYPE svg PUBLIC "-//W3C//DTD SVG 1.1//EN" "http://www.w3.org/Graphics/SVG/1.1/DTD/svg11.dtd">
<svg version="1.1" id="Layer_1" xmlns="http://www.w3.org/2000/svg" xmlns:xlink="http://www.w3.org/1999/xlink" x="0px" y="0px"
	 viewBox="-607 369 64 64" enable-background="new -607 369 64 64" xml:space="preserve">
<path fill="#F05133" d="M-542.6,433H-607v-64.4L-542.6,433z M-605,431h57.6l-57.6-57.6V431z"/>
<path fill="#F05133" d="M-566.6,424H-594v-27.4L-566.6,424z M-592,422h20.6l-20.6-20.6V422z"/>
<rect x="-605" y="390" fill="#F05133" width="6" height="2"/>
<rect x="-605" y="398" fill="#F05133" width="4" height="2"/>
<rect x="-605" y="406" fill="#F05133" width="6" height="2"/>
<rect x="-605" y="414" fill="#F05133" width="4" height="2"/>
<rect x="-605" y="422" fill="#F05133" width="6" height="2"/>
<path fill="#F05133" d="M-542.6,415.4l-9.9-2.5l-0.2-0.2l-36.7-36.7l7.4-7.4l36.9,36.9L-542.6,415.4z M-551.5,411.1l6.1,1.5
	l-1.5-6.1l-35.1-35.1l-4.6,4.6L-551.5,411.1z"/>
<rect x="-580" y="374.8" transform="matrix(0.7071 0.7071 -0.7071 0.7071 98.4083 520.4214)" fill="#F05133" width="2" height="8.5"/>
</svg>
