<?xml version="1.0" encoding="utf-8"?>
<!-- Generator: Adobe Illustrator 18.1.0, SVG Export Plug-In . SVG Version: 6.00 Build 0)  -->
<!DOCTYPE svg PUBLIC "-//W3C//DTD SVG 1.1//EN" "http://www.w3.org/Graphics/SVG/1.1/DTD/svg11.dtd">
<svg version="1.1" id="Layer_1" xmlns="http://www.w3.org/2000/svg" xmlns:xlink="http://www.w3.org/1999/xlink" x="0px" y="0px"
	 viewBox="-628 385 23 32" enable-background="new -628 385 23 32" xml:space="preserve">
<g>
	<line opacity="0.3" fill="none" stroke="#449FDB" enable-background="new    " x1="-628" y1="1393" x2="716" y2="1393"/>
</g>
<path fill="#FBFBFB" d="M-616.5,391c0.3,0,0.5-0.2,0.5-0.5V389h0.5c0.3,0,0.5-0.2,0.5-0.5v-3c0-0.3-0.2-0.5-0.5-0.5h-2
	c-0.3,0-0.5,0.2-0.5,0.5v3c0,0.3,0.2,0.5,0.5,0.5h0.5v1.5C-617,390.8-616.8,391-616.5,391z M-617,386h1v2h-1V386z M-627.7,416.8
	c0.1,0,0.2,0.1,0.2,0.1c0.2,0,0.4-0.1,0.4-0.3l4.3-8.2c1.9,1,4.1,1.5,6.3,1.5c2.2,0,4.3-0.5,6.3-1.5l4.3,8.2
	c0.1,0.2,0.3,0.3,0.4,0.3c0.1,0,0.2,0,0.2-0.1c0.2-0.1,0.3-0.4,0.2-0.7l-4.3-8.2c1-0.6,1.9-1.3,2.8-2.1c1-1,1-2.6,0-3.5
	c-0.9-0.9-2.6-0.9-3.5,0c-0.5,0.5-1,0.9-1.5,1.2l-2.4-4.5c0.9-0.7,1.5-1.8,1.5-3.1c0-2.2-1.8-4-4-4c-2.2,0-4,1.8-4,4
	c0,1.3,0.6,2.4,1.5,3.1l-2.4,4.5c-0.5-0.3-1.1-0.8-1.5-1.2c-0.9-0.9-2.6-0.9-3.5,0c-1,1-1,2.6,0,3.5c0.8,0.8,1.8,1.5,2.7,2.1
	l-4.3,8.2C-628.1,416.4-628,416.7-627.7,416.8z M-624.6,402.6c0.4,0,0.8,0.2,1.1,0.4c1.9,1.9,4.4,2.9,7.1,2.9c2.7,0,5.2-1,7.1-2.9
	c0.6-0.6,1.6-0.6,2.1,0c0.6,0.6,0.6,1.5,0,2.1c-2.5,2.5-5.7,3.8-9.2,3.8c-3.5,0-6.7-1.4-9.2-3.8c-0.6-0.6-0.6-1.5,0-2.1
	C-625.4,402.7-625,402.6-624.6,402.6z M-619.5,395.9c0-1.6,1.3-3,3-3c1.6,0,3,1.3,3,3s-1.3,3-3,3
	C-618.1,398.9-619.5,397.6-619.5,395.9z M-618.1,399.6c0.5,0.2,1,0.4,1.6,0.4c0.6,0,1.1-0.1,1.6-0.3l2.3,4.5
	c-1.2,0.6-2.6,0.9-3.9,0.9c-1.4,0-2.7-0.3-4-0.9C-620.4,404-618.1,399.6-618.1,399.6z"/>
</svg>
